<?xml version="1.0" standalone="no"?>
<!DOCTYPE svg PUBLIC "-//W3C//DTD SVG 20010904//EN"
 "http://www.w3.org/TR/2001/REC-SVG-20010904/DTD/svg10.dtd">
<svg version="1.0" xmlns="http://www.w3.org/2000/svg"
 width="811.000000pt" height="819.000000pt" viewBox="0 0 811.000000 819.000000"
 preserveAspectRatio="xMidYMid meet">

<g transform="translate(0.000000,819.000000) scale(0.100000,-0.100000)"
fill="#000000" stroke="none">
<path d="M980 8141 c-8 -5 -37 -12 -65 -15 -86 -12 -194 -46 -295 -94 -198
-93 -380 -275 -482 -482 -34 -68 -74 -190 -82 -250 -4 -24 -11 -49 -16 -56 -7
-7 -9 -1185 -7 -3230 3 -2951 4 -3224 20 -3279 9 -33 20 -76 25 -95 29 -106
83 -213 158 -315 86 -116 178 -201 299 -276 l70 -44 3538 -3 3539 -2 56 31
c127 69 265 192 343 306 l29 42 0 3636 c0 2579 -3 3642 -11 3656 -6 12 -17 28
-24 37 -101 125 -184 203 -270 256 -28 17 -59 37 -70 43 -37 23 -121 61 -161
73 -80 23 -145 40 -201 52 -45 9 -793 13 -3218 15 -1738 1 -3167 -1 -3175 -6z
m2590 -1221 c0 -5 -4 -10 -10 -10 -5 0 -33 -14 -62 -31 -29 -18 -73 -43 -98
-57 -40 -22 -83 -50 -170 -109 -149 -100 -284 -215 -455 -387 -204 -204 -302
-328 -450 -567 -74 -119 -225 -415 -225 -442 0 -7 -4 -17 -8 -23 -18 -20 -91
-234 -126 -369 -60 -233 -82 -371 -97 -618 -18 -275 3 -571 56 -822 9 -44 21
-98 25 -120 21 -102 96 -328 160 -480 81 -192 245 -480 365 -639 33 -43 69
-90 79 -105 61 -81 302 -328 412 -422 109 -93 380 -289 399 -289 3 0 28 -15
57 -33 70 -45 284 -151 378 -188 41 -16 84 -34 95 -39 48 -22 274 -93 355
-111 19 -4 67 -15 105 -24 39 -9 97 -20 130 -25 119 -19 180 -36 183 -52 8
-41 -585 -64 -853 -33 -130 15 -151 18 -300 50 -439 94 -852 288 -1231 580
-83 63 -276 244 -375 350 -331 358 -617 901 -708 1350 -69 338 -75 390 -75
695 0 280 4 336 46 550 11 58 24 125 29 150 17 91 75 275 132 420 176 445 474
868 818 1164 142 122 139 119 258 204 139 99 212 143 366 222 204 105 458 202
625 240 30 7 66 16 80 21 36 11 90 11 90 -1z m1465 -750 c126 -10 220 -23 320
-45 33 -7 87 -18 120 -25 33 -7 71 -16 85 -20 14 -5 52 -16 85 -25 62 -18 185
-60 220 -76 11 -4 43 -17 71 -28 79 -30 235 -107 331 -161 47 -28 87 -50 89
-50 6 0 229 -153 269 -185 68 -53 179 -148 198 -169 62 -69 95 -252 76 -421
-6 -55 -15 -104 -20 -110 -5 -5 -9 -22 -9 -37 0 -15 -4 -28 -9 -28 -5 0 -12
-13 -16 -30 -4 -16 -11 -30 -16 -30 -5 0 -9 -7 -9 -17 0 -9 -11 -31 -25 -49
-14 -18 -25 -36 -25 -41 0 -9 -100 -114 -140 -148 -52 -44 -204 -125 -233
-125 -10 0 -25 -4 -35 -10 -16 -9 -96 -26 -176 -37 -21 -3 -48 -1 -60 5 -11 6
-39 19 -61 28 -22 10 -45 23 -52 29 -6 5 -26 21 -44 35 -18 14 -38 31 -45 38
-7 6 -17 12 -23 12 -6 0 -11 7 -11 15 0 8 -4 15 -8 15 -11 0 -78 67 -157 155
-132 148 -374 385 -483 473 -38 32 -73 60 -98 80 -5 5 -30 22 -55 38 -24 16
-46 31 -49 35 -3 3 -12 8 -20 12 -17 8 -53 30 -60 37 -12 12 -112 63 -185 95
-69 30 -109 48 -127 56 -10 5 -26 9 -37 9 -10 0 -35 7 -54 15 -20 8 -49 15
-65 15 -15 0 -32 4 -37 9 -6 5 -50 12 -100 15 -49 3 -125 8 -169 12 -57 5 -94
2 -135 -9 -31 -9 -101 -23 -156 -33 -55 -9 -109 -20 -120 -25 -11 -4 -47 -15
-80 -24 -61 -17 -69 -20 -140 -50 -381 -163 -680 -462 -838 -835 -40 -95 -47
-117 -78 -230 -50 -183 -59 -458 -21 -665 47 -257 173 -528 335 -720 91 -107
224 -231 302 -281 17 -10 32 -21 35 -25 24 -29 314 -170 388 -188 20 -5 73
-18 117 -29 178 -45 197 -47 410 -46 201 0 328 13 349 34 6 6 22 10 37 10 15
0 31 5 34 10 3 6 13 10 22 10 16 0 52 15 138 56 28 13 54 24 58 24 4 0 31 15
60 33 29 18 59 36 67 40 17 8 53 30 60 37 3 3 29 21 57 40 29 19 53 38 53 43
0 4 6 7 14 7 8 0 16 3 18 8 2 4 16 17 32 30 109 84 240 211 564 548 166 171
204 205 282 247 19 11 39 23 45 28 13 12 182 11 190 -1 3 -5 14 -10 24 -10 41
0 222 -68 241 -90 3 -3 21 -16 40 -27 35 -21 180 -164 180 -177 0 -4 11 -22
25 -40 14 -18 25 -40 25 -49 0 -10 4 -17 9 -17 5 0 12 -13 16 -30 4 -17 10
-30 15 -30 4 0 10 -15 14 -32 3 -18 13 -73 22 -123 23 -123 23 -116 -22 -345
-9 -46 -52 -107 -105 -150 -23 -19 -47 -39 -53 -45 -192 -173 -595 -408 -866
-505 -19 -6 -44 -16 -55 -21 -19 -8 -98 -33 -210 -66 -27 -8 -68 -18 -90 -23
-22 -4 -85 -16 -140 -27 -210 -43 -273 -48 -575 -48 -302 0 -365 5 -575 48
-55 11 -118 23 -140 27 -22 5 -65 16 -95 25 -30 9 -68 20 -85 25 -124 34 -325
115 -478 193 -271 137 -522 317 -754 541 -124 120 -154 155 -181 210 -18 36
-32 70 -32 76 0 6 -4 18 -9 28 -11 19 -49 131 -61 177 -4 17 -15 57 -25 90
-36 130 -54 221 -75 390 -40 317 -40 473 0 790 22 173 26 194 59 325 35 133
44 167 51 185 11 32 30 85 49 145 38 115 63 152 181 271 180 182 356 323 560
450 125 78 349 193 445 229 66 25 112 43 125 49 8 4 42 16 75 25 33 10 71 22
85 26 14 5 52 16 85 25 33 9 74 20 91 26 17 5 39 9 49 9 10 0 46 6 79 14 211
49 554 68 831 46z"/>
</g>
</svg>
